<svg id="svg" version="1.1" xmlns="http://www.w3.org/2000/svg" xmlns:xlink="http://www.w3.org/1999/xlink" width="400" height="400" viewBox="0, 0, 400,400"><g id="svgg"><path id="path0" d="M0.000 200.000 L 0.000 400.000 200.000 400.000 L 400.000 400.000 400.000 200.000 L 400.000 0.000 200.000 0.000 L 0.000 0.000 0.000 200.000 M202.978 75.877 C 205.453 76.950,205.567 76.069,201.964 83.720 C 197.356 93.502,197.600 92.844,198.270 93.671 C 198.822 94.353,198.941 94.149,202.669 86.144 C 204.776 81.619,206.660 77.855,206.854 77.780 C 207.254 77.626,235.335 89.309,235.330 89.628 C 235.329 89.741,231.370 97.101,226.533 105.984 C 218.081 121.505,217.759 122.164,218.248 122.911 C 218.528 123.338,218.790 123.645,218.831 123.594 C 218.872 123.542,222.848 116.225,227.667 107.333 C 232.486 98.442,236.619 90.960,236.853 90.707 C 237.278 90.245,248.193 94.424,249.227 95.445 C 249.444 95.658,250.697 98.458,252.012 101.667 C 253.328 104.875,257.155 114.210,260.518 122.411 L 266.633 137.322 258.137 152.910 C 250.342 167.214,249.676 168.562,250.057 169.274 C 250.612 170.310,249.989 171.324,259.367 154.105 L 267.435 139.290 268.535 141.895 C 269.139 143.328,269.641 144.758,269.650 145.072 C 269.664 145.559,257.117 176.587,256.357 177.945 C 256.120 178.370,254.555 176.353,251.122 171.199 C 250.718 170.594,250.681 170.605,250.299 171.443 C 249.925 172.263,250.083 172.591,252.650 176.350 L 255.402 180.378 252.408 187.740 L 249.413 195.103 241.623 198.354 C 237.339 200.141,233.783 201.556,233.722 201.497 C 233.661 201.438,236.986 195.189,241.110 187.611 C 250.130 171.038,249.547 172.251,248.926 171.365 C 248.469 170.712,247.933 171.602,240.004 186.192 C 235.364 194.729,231.328 202.004,231.034 202.359 C 230.532 202.965,216.702 209.000,215.816 209.000 C 215.292 209.000,214.110 207.590,193.398 182.250 C 191.487 179.912,189.801 178.000,189.651 178.000 C 189.212 178.000,188.916 179.328,189.257 179.766 C 189.429 179.986,195.012 186.814,201.663 194.939 C 208.467 203.251,213.627 209.834,213.461 209.991 C 212.767 210.652,200.965 215.333,199.993 215.333 C 198.851 215.333,174.667 205.400,174.667 204.931 C 174.667 204.782,177.750 199.005,181.520 192.095 C 187.781 180.614,188.337 179.463,187.960 178.758 C 187.398 177.709,187.841 177.005,180.146 191.171 C 176.363 198.135,173.150 203.958,173.006 204.111 C 172.721 204.414,151.667 195.713,151.667 195.292 C 151.667 195.150,155.714 186.386,160.660 175.816 C 169.635 156.638,170.148 155.333,168.710 155.333 C 168.563 155.333,166.631 159.196,164.415 163.917 C 155.244 183.457,152.362 189.618,151.371 191.803 C 150.797 193.069,150.271 194.044,150.201 193.969 C 149.894 193.638,130.333 145.637,130.333 145.213 C 130.333 144.728,139.936 121.017,140.299 120.606 C 140.410 120.481,146.800 128.078,154.500 137.488 C 168.100 154.108,168.511 154.572,168.882 153.720 C 169.228 152.927,169.133 152.682,167.882 151.125 C 166.564 149.486,153.024 132.993,145.096 123.370 C 143.041 120.875,141.353 118.631,141.346 118.384 C 141.328 117.740,150.298 95.911,150.772 95.447 C 151.163 95.064,186.106 80.326,186.584 80.342 C 186.721 80.346,189.008 83.550,191.667 87.460 C 196.308 94.289,196.517 94.539,196.931 93.777 C 197.446 92.831,197.867 93.592,192.550 85.854 C 190.164 82.381,188.352 79.489,188.523 79.426 C 188.694 79.363,191.083 78.354,193.833 77.184 C 199.524 74.761,200.187 74.667,202.978 75.877 M198.390 95.841 C 198.021 96.652,198.512 97.451,207.054 109.934 C 217.657 125.429,216.540 123.975,217.023 122.916 C 217.350 122.199,202.242 98.993,199.005 95.241 C 198.882 95.098,198.606 95.369,198.390 95.841 M195.901 96.583 C 195.624 97.271,194.125 100.533,192.570 103.833 C 191.015 107.133,188.601 112.271,187.205 115.250 C 185.809 118.229,183.542 123.067,182.167 126.000 C 180.792 128.933,178.542 133.733,177.167 136.667 C 175.792 139.600,173.538 144.403,172.159 147.341 C 169.718 152.541,169.379 154.000,170.612 154.000 C 171.359 154.000,197.706 96.721,197.276 96.032 C 196.674 95.068,196.482 95.145,195.901 96.583 M202.525 150.037 C 188.549 175.739,188.180 176.501,189.524 176.881 C 189.694 176.929,195.426 166.663,202.262 154.068 C 209.098 141.472,215.360 129.946,216.178 128.453 C 217.618 125.827,217.647 125.717,217.083 125.037 C 216.512 124.349,216.206 124.875,202.525 150.037 M218.330 125.007 C 217.885 125.837,216.040 122.973,232.607 147.167 C 250.017 172.589,248.281 170.223,248.887 169.358 C 249.396 168.632,250.094 169.685,221.413 127.917 C 218.680 123.937,218.828 124.076,218.330 125.007 M170.377 155.538 C 169.900 156.584,186.791 177.589,187.581 176.933 C 188.376 176.273,187.977 175.666,181.769 168.097 C 169.619 153.282,170.808 154.592,170.377 155.538 M164.355 250.678 C 164.800 250.916,165.000 250.916,165.000 250.678 C 165.000 250.471,165.999 250.333,167.500 250.333 L 170.000 250.333 170.000 260.167 L 170.000 270.000 167.500 270.000 C 165.999 270.000,165.000 269.862,165.000 269.655 C 165.000 269.417,164.800 269.417,164.355 269.655 C 162.440 270.680,158.286 269.852,157.475 268.285 C 156.815 267.008,156.806 253.225,157.465 252.037 C 158.322 250.491,162.475 249.672,164.355 250.678 M180.000 250.852 C 180.000 251.322,180.070 251.322,180.741 250.852 C 181.579 250.265,184.795 250.145,186.128 250.652 C 188.014 251.369,188.126 251.957,188.159 261.373 L 188.190 270.000 185.768 270.000 L 183.345 270.000 183.256 262.083 L 183.167 254.167 182.062 254.061 C 180.021 253.865,180.000 253.951,180.000 262.374 L 180.000 270.000 177.667 270.000 L 175.333 270.000 175.333 260.167 L 175.333 250.333 177.667 250.333 C 179.556 250.333,180.000 250.432,180.000 250.852 M204.563 250.984 C 205.743 251.704,206.328 253.225,206.331 255.583 L 206.333 257.000 204.000 257.000 C 202.694 257.000,201.648 256.853,201.625 256.667 C 201.602 256.483,201.546 256.033,201.500 255.667 C 201.454 255.300,201.398 254.767,201.375 254.482 C 201.342 254.076,200.990 253.985,199.750 254.065 L 198.167 254.167 198.167 260.167 L 198.167 266.167 199.750 266.268 C 200.990 266.348,201.342 266.258,201.375 265.852 C 201.398 265.567,201.454 265.033,201.500 264.667 C 201.546 264.300,201.602 263.850,201.625 263.667 C 201.648 263.479,202.710 263.333,204.046 263.333 L 206.425 263.333 206.251 265.500 C 205.934 269.447,205.102 270.000,199.484 270.000 C 195.749 270.000,195.657 269.982,194.589 269.027 L 193.500 268.055 193.500 260.167 L 193.500 252.279 194.589 251.306 C 196.017 250.030,202.647 249.816,204.563 250.984 M223.411 251.305 L 224.500 252.277 224.601 259.634 C 224.744 269.997,224.742 270.000,217.823 270.000 C 213.714 270.000,213.667 269.991,212.589 269.028 L 211.500 268.056 211.408 260.778 C 211.277 250.501,211.378 250.347,218.245 250.338 C 222.282 250.333,222.334 250.343,223.411 251.305 M234.667 250.852 C 234.667 251.322,234.737 251.322,235.408 250.852 C 236.246 250.265,239.462 250.145,240.794 250.652 C 242.681 251.369,242.792 251.957,242.826 261.373 L 242.856 270.000 240.434 270.000 L 238.012 270.000 237.923 262.083 L 237.833 254.167 236.728 254.061 C 234.688 253.865,234.667 253.951,234.667 262.374 L 234.667 270.000 232.333 270.000 L 230.000 270.000 230.000 260.167 L 230.000 250.333 232.333 250.333 C 234.223 250.333,234.667 250.432,234.667 250.852 M161.822 254.410 C 161.727 254.656,161.691 257.402,161.742 260.512 L 161.833 266.167 163.333 266.167 L 164.833 266.167 164.833 260.167 L 164.833 254.167 163.414 254.064 C 162.455 253.995,161.938 254.107,161.822 254.410 M216.148 254.429 C 216.057 254.665,216.025 257.402,216.075 260.512 L 216.167 266.167 218.083 266.267 L 220.000 266.367 220.000 260.183 L 220.000 254.000 218.156 254.000 C 216.961 254.000,216.255 254.151,216.148 254.429 " stroke="none" fill="#ececec" fill-rule="evenodd"></path><path id="path1" d="M193.667 77.496 C 191.008 78.648,188.860 79.724,188.892 79.887 C 188.939 80.126,197.098 92.209,197.450 92.561 C 197.589 92.700,204.667 77.547,204.667 77.112 C 204.667 76.581,201.114 75.328,199.720 75.368 C 199.022 75.387,196.433 76.298,193.667 77.496 M202.886 86.192 C 200.433 91.437,199.038 94.796,199.200 95.066 C 200.403 97.063,217.436 121.663,217.609 121.651 C 217.846 121.635,234.770 90.603,234.922 89.906 C 234.988 89.601,214.217 80.595,207.371 77.960 C 206.938 77.793,206.064 79.398,202.886 86.192 M168.293 88.112 L 150.753 95.500 146.126 106.813 C 143.582 113.035,141.500 118.239,141.500 118.376 C 141.500 118.514,147.781 126.286,155.458 135.647 L 169.416 152.668 182.888 123.942 C 190.297 108.142,196.316 95.030,196.263 94.803 C 196.032 93.812,186.789 80.693,186.333 80.708 C 186.058 80.717,177.940 84.049,168.293 88.112 M228.312 106.594 C 223.466 115.485,219.374 123.019,219.219 123.335 C 218.972 123.840,249.170 168.635,249.506 168.263 C 249.553 168.210,253.372 161.221,257.992 152.732 L 266.392 137.297 259.313 120.065 C 255.420 110.588,251.555 101.172,250.724 99.142 L 249.213 95.451 246.690 94.419 C 245.302 93.852,242.582 92.721,240.646 91.907 L 237.125 90.427 228.312 106.594 M197.078 94.128 C 196.795 94.750,196.831 95.086,197.242 95.673 L 197.768 96.423 198.224 95.552 C 198.595 94.844,198.602 94.554,198.260 94.007 C 197.718 93.138,197.520 93.158,197.078 94.128 M190.685 112.250 C 186.757 120.638,180.932 133.050,177.741 139.833 C 174.550 146.617,171.718 152.713,171.448 153.380 L 170.957 154.594 179.562 165.092 C 184.294 170.866,188.268 175.495,188.391 175.378 C 189.073 174.736,216.332 124.145,216.193 123.781 C 216.033 123.364,198.014 97.000,197.888 97.000 C 197.855 97.000,194.614 103.862,190.685 112.250 M135.553 132.593 C 132.866 139.155,130.664 144.819,130.660 145.179 C 130.650 146.157,150.081 193.387,150.371 193.089 C 150.629 192.825,168.333 155.140,168.333 154.856 C 168.333 154.747,142.742 123.373,140.513 120.748 C 140.472 120.701,138.241 126.031,135.553 132.593 M217.055 123.180 C 216.740 123.869,216.772 124.185,217.226 124.877 L 217.783 125.727 218.248 124.840 C 218.653 124.068,218.644 123.848,218.182 123.143 C 217.527 122.144,217.527 122.144,217.055 123.180 M203.894 151.463 C 196.264 165.474,189.979 177.079,189.927 177.252 C 189.875 177.424,195.533 184.512,202.500 193.003 C 209.467 201.494,215.253 208.570,215.358 208.728 C 215.463 208.886,218.988 207.577,223.191 205.820 L 230.833 202.624 237.833 189.746 C 241.683 182.663,245.617 175.421,246.575 173.653 L 248.317 170.437 233.160 148.330 C 224.823 136.172,217.949 126.171,217.884 126.106 C 217.819 126.042,211.524 137.452,203.894 151.463 M266.777 141.019 C 265.014 143.949,251.000 169.966,251.000 170.309 C 251.000 171.310,256.124 178.110,256.397 177.471 C 256.546 177.120,259.579 169.716,263.137 161.018 L 269.605 145.203 269.006 143.685 C 268.676 142.850,268.195 141.650,267.936 141.019 L 267.467 139.872 266.777 141.019 M169.048 153.861 C 168.742 154.533,168.776 154.857,169.226 155.544 L 169.783 156.394 170.241 155.520 C 170.647 154.745,170.627 154.555,170.063 153.838 L 169.427 153.029 169.048 153.861 M160.917 175.759 C 156.012 186.253,152.004 194.988,152.008 195.169 C 152.020 195.661,172.648 204.158,172.964 203.802 C 173.829 202.825,187.030 177.892,186.884 177.511 C 186.732 177.115,170.046 156.655,169.890 156.673 C 169.859 156.677,165.821 165.265,160.917 175.759 M249.004 169.657 C 248.585 170.668,248.931 171.667,249.701 171.667 C 250.256 171.667,250.402 170.043,249.910 169.341 C 249.429 168.655,249.417 168.659,249.004 169.657 M241.750 186.891 C 237.488 194.712,234.038 201.139,234.083 201.173 C 234.129 201.207,237.553 199.819,241.692 198.089 L 249.218 194.944 252.113 187.889 C 253.705 184.008,255.006 180.684,255.004 180.502 C 254.999 180.101,249.953 172.666,249.687 172.669 C 249.584 172.671,246.013 179.071,241.750 186.891 M187.837 176.987 C 187.485 178.096,188.303 179.282,188.877 178.496 C 189.439 177.729,189.454 177.254,188.933 176.733 C 188.367 176.167,188.076 176.235,187.837 176.987 M181.627 192.319 L 174.753 204.955 176.293 205.617 C 188.726 210.956,198.913 215.001,199.944 215.007 C 200.726 215.012,203.404 214.083,207.375 212.430 L 213.583 209.846 211.666 207.506 C 193.864 185.783,188.938 179.821,188.738 179.758 C 188.607 179.716,185.407 185.369,181.627 192.319 M160.000 250.623 C 157.458 251.265,157.333 251.723,157.333 260.429 C 157.333 267.837,157.340 267.910,158.126 268.758 C 159.542 270.285,163.317 270.371,164.681 268.907 L 165.333 268.208 165.333 269.104 C 165.333 269.985,165.371 270.000,167.500 270.000 L 169.667 270.000 169.667 260.167 L 169.667 250.333 167.500 250.333 C 165.361 250.333,165.333 250.345,165.323 251.250 C 165.313 252.073,165.268 252.108,164.879 251.596 C 164.046 250.500,162.058 250.103,160.000 250.623 M175.619 250.417 C 175.593 250.463,175.541 254.887,175.505 260.250 L 175.439 270.000 177.536 270.000 L 179.632 270.000 179.733 262.154 C 179.843 253.572,179.815 253.682,181.850 253.672 C 183.635 253.663,183.667 253.814,183.667 262.233 L 183.667 270.000 185.833 270.000 L 188.000 270.000 187.999 261.750 C 187.999 252.179,187.846 251.503,185.500 250.723 C 183.698 250.124,181.493 250.400,180.479 251.353 L 179.667 252.116 179.667 251.225 C 179.667 250.452,176.017 249.723,175.619 250.417 M196.339 250.654 C 193.806 251.295,193.667 251.781,193.667 260.003 C 193.667 269.607,193.901 270.002,199.590 269.998 C 204.583 269.995,205.996 268.947,205.999 265.250 L 206.000 263.333 203.833 263.333 L 201.667 263.333 201.667 264.827 C 201.667 266.467,201.135 266.839,199.124 266.609 L 198.167 266.500 198.076 260.358 C 197.978 253.752,197.995 253.682,199.723 253.672 C 201.352 253.662,201.667 253.965,201.667 255.536 L 201.667 257.000 203.833 257.000 L 206.000 257.000 206.000 255.150 C 206.000 253.084,205.362 251.551,204.258 250.960 C 203.341 250.469,197.900 250.259,196.339 250.654 M214.339 250.657 C 211.796 251.294,211.667 251.755,211.667 260.211 L 211.667 267.718 212.612 268.664 C 214.802 270.854,222.903 270.441,223.976 268.086 C 224.467 267.009,224.456 253.300,223.963 252.219 C 223.265 250.687,217.773 249.796,214.339 250.657 M230.285 250.417 C 230.259 250.463,230.208 254.887,230.172 260.250 L 230.106 270.000 232.202 270.000 L 234.299 270.000 234.400 262.154 C 234.509 253.572,234.482 253.682,236.517 253.672 C 238.301 253.663,238.333 253.814,238.333 262.233 L 238.333 270.000 240.500 270.000 L 242.667 270.000 242.666 261.750 C 242.666 252.179,242.512 251.503,240.167 250.723 C 238.364 250.124,236.160 250.400,235.146 251.353 L 234.333 252.116 234.333 251.225 C 234.333 250.452,230.684 249.723,230.285 250.417 M164.810 254.190 C 165.243 254.624,165.333 255.654,165.333 260.167 C 165.333 266.371,165.187 266.780,163.042 266.601 L 161.833 266.500 161.742 260.358 C 161.673 255.667,161.751 254.152,162.076 253.946 C 162.778 253.501,164.251 253.632,164.810 254.190 M219.933 254.067 C 220.400 254.533,220.502 265.551,220.047 266.269 C 219.860 266.563,219.184 266.672,217.968 266.603 L 216.167 266.500 216.075 260.511 C 216.025 257.217,216.058 254.330,216.148 254.095 C 216.360 253.543,219.388 253.521,219.933 254.067 " stroke="none" fill="#05acb4" fill-rule="evenodd"></path><path id="path2" d="M199.417 75.230 C 199.737 75.314,200.262 75.314,200.583 75.230 C 200.904 75.146,200.642 75.077,200.000 75.077 C 199.358 75.077,199.096 75.146,199.417 75.230 M198.335 95.329 C 198.108 95.877,197.775 96.234,197.595 96.122 C 197.414 96.011,197.437 96.238,197.645 96.626 C 197.853 97.015,198.102 97.333,198.198 97.333 C 198.294 97.333,198.287 97.195,198.182 97.025 C 197.924 96.607,198.692 94.977,199.045 95.194 C 199.199 95.290,199.236 95.135,199.127 94.851 C 198.859 94.152,198.811 94.181,198.335 95.329 M186.876 177.491 C 186.973 177.743,187.257 178.027,187.509 178.124 C 187.797 178.235,187.901 178.131,187.791 177.842 C 187.694 177.591,187.409 177.306,187.158 177.209 C 186.869 177.099,186.765 177.203,186.876 177.491 M199.417 215.230 C 199.737 215.314,200.262 215.314,200.583 215.230 C 200.904 215.146,200.642 215.077,200.000 215.077 C 199.358 215.077,199.096 215.146,199.417 215.230 M179.705 251.135 C 179.667 252.083,179.681 252.090,180.333 251.500 C 181.088 250.817,181.252 250.376,180.528 250.977 C 180.153 251.288,180.024 251.245,179.900 250.768 C 179.804 250.397,179.729 250.538,179.705 251.135 M234.372 251.135 C 234.334 252.083,234.348 252.090,235.000 251.500 C 235.755 250.817,235.919 250.376,235.195 250.977 C 234.820 251.288,234.690 251.245,234.567 250.768 C 234.470 250.397,234.396 250.538,234.372 251.135 M157.142 260.167 C 157.142 264.200,157.190 265.804,157.249 263.732 C 157.308 261.659,157.307 258.359,157.249 256.398 C 157.190 254.438,157.142 256.133,157.142 260.167 M193.475 260.167 C 193.476 264.200,193.524 265.804,193.582 263.732 C 193.641 261.659,193.641 258.359,193.582 256.398 C 193.523 254.438,193.475 256.133,193.475 260.167 M224.475 260.167 C 224.476 264.200,224.524 265.804,224.582 263.732 C 224.641 261.659,224.641 258.359,224.582 256.398 C 224.523 254.438,224.475 256.133,224.475 260.167 M162.750 253.896 C 163.071 253.980,163.596 253.980,163.917 253.896 C 164.237 253.813,163.975 253.744,163.333 253.744 C 162.692 253.744,162.429 253.813,162.750 253.896 M181.254 253.902 C 181.669 253.982,182.269 253.979,182.587 253.896 C 182.906 253.812,182.567 253.747,181.833 253.751 C 181.100 253.754,180.839 253.823,181.254 253.902 M199.254 253.902 C 199.669 253.982,200.269 253.979,200.587 253.896 C 200.906 253.812,200.567 253.747,199.833 253.751 C 199.100 253.754,198.839 253.823,199.254 253.902 M211.473 260.167 C 211.473 263.833,211.522 265.379,211.582 263.601 C 211.641 261.823,211.642 258.823,211.582 256.934 C 211.523 255.045,211.474 256.500,211.473 260.167 M235.921 253.902 C 236.335 253.982,236.935 253.979,237.254 253.896 C 237.573 253.812,237.233 253.747,236.500 253.751 C 235.767 253.754,235.506 253.823,235.921 253.902 M183.477 262.167 C 183.477 266.567,183.525 268.321,183.582 266.064 C 183.640 263.808,183.640 260.208,183.582 258.064 C 183.524 255.921,183.477 257.767,183.477 262.167 M220.138 260.167 C 220.138 263.467,220.188 264.772,220.249 263.066 C 220.309 261.361,220.309 258.661,220.248 257.066 C 220.187 255.472,220.137 256.867,220.138 260.167 M238.144 262.167 C 238.144 266.567,238.191 268.321,238.249 266.064 C 238.307 263.808,238.307 260.208,238.249 258.064 C 238.191 255.921,238.144 257.767,238.144 262.167 M165.136 260.167 C 165.136 263.283,165.186 264.603,165.248 263.100 C 165.309 261.596,165.310 259.046,165.248 257.433 C 165.187 255.820,165.137 257.050,165.136 260.167 M179.810 262.500 C 179.810 266.717,179.858 268.396,179.916 266.231 C 179.974 264.067,179.974 260.617,179.915 258.565 C 179.857 256.512,179.809 258.283,179.810 262.500 M234.476 262.500 C 234.476 266.717,234.524 268.396,234.582 266.231 C 234.641 264.067,234.640 260.617,234.582 258.565 C 234.524 256.512,234.476 258.283,234.476 262.500 M161.966 266.433 C 162.122 266.588,162.755 266.663,163.374 266.599 C 164.472 266.486,164.465 266.479,163.092 266.317 C 162.318 266.226,161.811 266.278,161.966 266.433 M198.305 266.438 C 198.456 266.589,199.161 266.661,199.873 266.599 L 201.167 266.486 199.599 266.325 C 198.737 266.237,198.154 266.288,198.305 266.438 M164.895 268.583 C 164.815 268.721,164.871 269.133,165.018 269.500 C 165.252 270.082,165.289 270.050,165.310 269.250 C 165.333 268.346,165.177 268.095,164.895 268.583 " stroke="none" fill="#8cd4d4" fill-rule="evenodd"></path><path id="path3" d="M165.026 250.603 C 165.011 250.861,164.830 250.937,164.583 250.789 C 164.332 250.638,164.361 250.777,164.654 251.139 C 165.153 251.753,165.540 251.374,165.221 250.583 C 165.091 250.263,165.047 250.267,165.026 250.603 M169.814 260.167 C 169.814 265.667,169.860 267.963,169.916 265.271 C 169.972 262.578,169.972 258.078,169.916 255.271 C 169.860 252.463,169.815 254.667,169.814 260.167 M206.100 255.333 C 206.100 256.342,206.162 256.754,206.239 256.250 C 206.315 255.746,206.315 254.921,206.239 254.417 C 206.162 253.912,206.100 254.325,206.100 255.333 M206.100 265.000 C 206.100 266.008,206.162 266.421,206.239 265.917 C 206.315 265.412,206.315 264.587,206.239 264.083 C 206.162 263.579,206.100 263.992,206.100 265.000 M217.250 266.569 C 217.662 266.648,218.338 266.648,218.750 266.569 C 219.162 266.489,218.825 266.424,218.000 266.424 C 217.175 266.424,216.838 266.489,217.250 266.569 " stroke="none" fill="#c4e4e4" fill-rule="evenodd"></path><path id="path4" d="" stroke="none" fill="#dcf0d0" fill-rule="evenodd"></path></g></svg>